<?xml version="1.0" standalone="no"?>
<svg viewBox="0 0 200 200" xmlns="http://www.w3.org/2000/svg">
  <path fill="#FF0066" d="M45.9,-72.5C59.5,-62.7,70.4,-49.9,78.8,-35C87.2,-20,93,-2.9,91.9,14.1C90.8,31,82.7,47.9,70.9,61.2C59,74.6,43.4,84.6,26.5,88.8C9.7,93,-8.4,91.5,-24.3,85.6C-40.3,79.7,-54.2,69.3,-64.7,56.5C-75.3,43.6,-82.6,28.3,-84.8,12.2C-87,-3.8,-84.3,-20.5,-77.6,-35.6C-70.9,-50.7,-60.4,-64.1,-46.8,-73.9C-33.2,-83.6,-16.6,-89.7,-0.2,-89.4C16.2,-89,32.3,-82.3,45.9,-72.5Z" transform="translate(100 100)" />
</svg>
