<?xml version="1.0" standalone="no"?>
<!DOCTYPE svg PUBLIC "-//W3C//DTD SVG 20010904//EN"
 "http://www.w3.org/TR/2001/REC-SVG-20010904/DTD/svg10.dtd">
<svg version="1.0" xmlns="http://www.w3.org/2000/svg"
 width="300.000000pt" height="300.000000pt" viewBox="0 0 300.000000 300.000000"
 preserveAspectRatio="xMidYMid meet">
<metadata>
Created by potrace 1.14, written by Peter Selinger 2001-2017
</metadata>
<g transform="translate(0.000000,300.000000) scale(0.100000,-0.100000)"
fill="#000000" stroke="none">
<path d="M1375 2986 c-73 -17 -138 -42 -187 -73 -21 -13 -41 -23 -44 -23 -4 0
-39 -26 -78 -57 -167 -135 -290 -295 -423 -550 -36 -67 -68 -123 -71 -124 -86
-8 -219 -43 -309 -80 -141 -59 -215 -169 -217 -319 0 -73 8 -186 18 -232 3
-13 7 -36 10 -53 18 -131 63 -271 108 -335 37 -54 123 -130 147 -130 6 0 11
-1 11 -2 1 -2 3 -21 6 -43 3 -22 9 -49 14 -60 5 -11 21 -58 36 -105 55 -173
135 -306 270 -449 157 -167 320 -259 561 -317 185 -45 443 -40 638 13 256 69
544 310 674 562 34 67 96 220 105 262 3 13 10 46 16 73 10 48 22 66 46 66 18
0 93 69 123 114 69 99 135 409 135 626 0 112 -27 181 -98 252 -61 61 -145 94
-349 139 -94 20 -107 25 -107 39 0 32 -153 310 -212 385 -112 143 -208 238
-313 311 -27 19 -112 66 -125 69 -3 1 -12 5 -20 8 -100 42 -263 56 -365 33z"/>
</g>
</svg>
